<svg width="34" height="34" viewBox="0 0 34 34" fill="none" xmlns="http://www.w3.org/2000/svg">
<g id="Frame 117">
<rect id="Rectangle 1448" width="34" height="34" rx="3" fill="white"/>
<g id="person">
<mask id="mask0_148_169" style="mask-type:alpha" maskUnits="userSpaceOnUse" x="5" y="5" width="24" height="24">
<rect id="Bounding box" x="5" y="5" width="24" height="24" fill="#D9D9D9"/>
</mask>
<g mask="url(#mask0_148_169)">
<path id="person_2" d="M17 17C15.9 17 14.9583 16.6083 14.175 15.825C13.3917 15.0417 13 14.1 13 13C13 11.9 13.3917 10.9583 14.175 10.175C14.9583 9.39167 15.9 9 17 9C18.1 9 19.0417 9.39167 19.825 10.175C20.6083 10.9583 21 11.9 21 13C21 14.1 20.6083 15.0417 19.825 15.825C19.0417 16.6083 18.1 17 17 17ZM9 25V22.2C9 21.6333 9.14583 21.1125 9.4375 20.6375C9.72917 20.1625 10.1167 19.8 10.6 19.55C11.6333 19.0333 12.6833 18.6458 13.75 18.3875C14.8167 18.1292 15.9 18 17 18C18.1 18 19.1833 18.1292 20.25 18.3875C21.3167 18.6458 22.3667 19.0333 23.4 19.55C23.8833 19.8 24.2708 20.1625 24.5625 20.6375C24.8542 21.1125 25 21.6333 25 22.2V25H9ZM11 23H23V22.2C23 22.0167 22.9542 21.85 22.8625 21.7C22.7708 21.55 22.65 21.4333 22.5 21.35C21.6 20.9 20.6917 20.5625 19.775 20.3375C18.8583 20.1125 17.9333 20 17 20C16.0667 20 15.1417 20.1125 14.225 20.3375C13.3083 20.5625 12.4 20.9 11.5 21.35C11.35 21.4333 11.2292 21.55 11.1375 21.7C11.0458 21.85 11 22.0167 11 22.2V23ZM17 15C17.55 15 18.0208 14.8042 18.4125 14.4125C18.8042 14.0208 19 13.55 19 13C19 12.45 18.8042 11.9792 18.4125 11.5875C18.0208 11.1958 17.55 11 17 11C16.45 11 15.9792 11.1958 15.5875 11.5875C15.1958 11.9792 15 12.45 15 13C15 13.55 15.1958 14.0208 15.5875 14.4125C15.9792 14.8042 16.45 15 17 15Z" fill="#1C1B1F"/>
</g>
</g>
</g>
</svg>
